<mxfile host="app.diagrams.net" modified="2023-03-01T06:38:11.230Z" agent="5.0 (Macintosh; Intel Mac OS X 10_15_7) AppleWebKit/537.36 (KHTML, like Gecko) Chrome/108.0.0.0 Safari/537.36" version="20.7.3" etag="DuoQ4b_8kilEeBo_CoTE" type="github">
  <diagram id="yTqRMyYMSsNcWtNZnSZE" name="第 1 页">
    <mxGraphModel dx="954" dy="472" grid="1" gridSize="10" guides="1" tooltips="1" connect="1" arrows="1" fold="1" page="1" pageScale="1" pageWidth="827" pageHeight="1169" math="0" shadow="0">
      <root>
        <mxCell id="0" />
        <mxCell id="1" parent="0" />
        <mxCell id="HB4ECaWNP2ytKDMWqO4i-1" value="UI" style="rounded=1;whiteSpace=wrap;html=1;fillColor=#dae8fc;strokeColor=#6c8ebf;" vertex="1" parent="1">
          <mxGeometry x="120" y="100" width="110" height="40" as="geometry" />
        </mxCell>
        <mxCell id="HB4ECaWNP2ytKDMWqO4i-33" value="K8S API调用" style="edgeStyle=none;rounded=0;orthogonalLoop=1;jettySize=auto;html=1;exitX=0.5;exitY=1;exitDx=0;exitDy=0;endArrow=classic;endFill=1;" edge="1" parent="1" source="HB4ECaWNP2ytKDMWqO4i-5" target="HB4ECaWNP2ytKDMWqO4i-20">
          <mxGeometry relative="1" as="geometry" />
        </mxCell>
        <mxCell id="HB4ECaWNP2ytKDMWqO4i-47" style="edgeStyle=none;rounded=0;orthogonalLoop=1;jettySize=auto;html=1;exitX=0.5;exitY=1;exitDx=0;exitDy=0;entryX=0.5;entryY=0;entryDx=0;entryDy=0;endArrow=classic;endFill=1;" edge="1" parent="1" source="HB4ECaWNP2ytKDMWqO4i-5" target="HB4ECaWNP2ytKDMWqO4i-17">
          <mxGeometry relative="1" as="geometry" />
        </mxCell>
        <mxCell id="HB4ECaWNP2ytKDMWqO4i-48" value="K8S API调用" style="edgeLabel;html=1;align=center;verticalAlign=middle;resizable=0;points=[];" vertex="1" connectable="0" parent="HB4ECaWNP2ytKDMWqO4i-47">
          <mxGeometry x="0.1112" y="1" relative="1" as="geometry">
            <mxPoint as="offset" />
          </mxGeometry>
        </mxCell>
        <mxCell id="HB4ECaWNP2ytKDMWqO4i-5" value="运维平台Server" style="rounded=1;whiteSpace=wrap;html=1;fillColor=#dae8fc;strokeColor=#6c8ebf;" vertex="1" parent="1">
          <mxGeometry x="120" y="200" width="110" height="40" as="geometry" />
        </mxCell>
        <mxCell id="HB4ECaWNP2ytKDMWqO4i-9" value="阿里云" style="ellipse;shape=cloud;whiteSpace=wrap;html=1;fillColor=#fff2cc;strokeColor=#d6b656;" vertex="1" parent="1">
          <mxGeometry x="510" y="180" width="150" height="80" as="geometry" />
        </mxCell>
        <mxCell id="HB4ECaWNP2ytKDMWqO4i-10" value="" style="strokeWidth=2;html=1;shape=mxgraph.flowchart.annotation_2;align=left;labelPosition=right;pointerEvents=1;" vertex="1" parent="1">
          <mxGeometry x="640" y="170" width="50" height="100" as="geometry" />
        </mxCell>
        <mxCell id="HB4ECaWNP2ytKDMWqO4i-13" value="ECS" style="text;html=1;strokeColor=none;fillColor=none;align=center;verticalAlign=middle;whiteSpace=wrap;rounded=0;" vertex="1" parent="1">
          <mxGeometry x="680" y="150" width="60" height="30" as="geometry" />
        </mxCell>
        <mxCell id="HB4ECaWNP2ytKDMWqO4i-14" value="负载均衡" style="text;html=1;strokeColor=none;fillColor=none;align=center;verticalAlign=middle;whiteSpace=wrap;rounded=0;" vertex="1" parent="1">
          <mxGeometry x="680" y="180" width="60" height="30" as="geometry" />
        </mxCell>
        <mxCell id="HB4ECaWNP2ytKDMWqO4i-15" value="域名解析" style="text;html=1;strokeColor=none;fillColor=none;align=center;verticalAlign=middle;whiteSpace=wrap;rounded=0;" vertex="1" parent="1">
          <mxGeometry x="680" y="210" width="60" height="30" as="geometry" />
        </mxCell>
        <mxCell id="HB4ECaWNP2ytKDMWqO4i-16" value="......" style="text;html=1;strokeColor=none;fillColor=none;align=center;verticalAlign=middle;whiteSpace=wrap;rounded=0;" vertex="1" parent="1">
          <mxGeometry x="680" y="250" width="60" height="30" as="geometry" />
        </mxCell>
        <mxCell id="HB4ECaWNP2ytKDMWqO4i-17" value="业务K8S集群" style="rounded=1;whiteSpace=wrap;html=1;fillColor=#d5e8d4;strokeColor=#82b366;" vertex="1" parent="1">
          <mxGeometry x="325" y="350" width="105" height="80" as="geometry" />
        </mxCell>
        <mxCell id="HB4ECaWNP2ytKDMWqO4i-20" value="运维K8S集群&lt;br&gt;&lt;br&gt;(运行DIND容器打包和构建应用镜像)" style="rounded=1;whiteSpace=wrap;html=1;fillColor=#d5e8d4;strokeColor=#82b366;" vertex="1" parent="1">
          <mxGeometry x="120" y="350" width="110" height="80" as="geometry" />
        </mxCell>
        <mxCell id="HB4ECaWNP2ytKDMWqO4i-21" value="wukong" style="whiteSpace=wrap;html=1;aspect=fixed;fillColor=#dae8fc;strokeColor=#6c8ebf;" vertex="1" parent="1">
          <mxGeometry x="414" y="50" width="90" height="90" as="geometry" />
        </mxCell>
        <mxCell id="HB4ECaWNP2ytKDMWqO4i-29" value="" style="endArrow=none;html=1;rounded=0;exitX=0.5;exitY=0;exitDx=0;exitDy=0;entryX=0.5;entryY=1;entryDx=0;entryDy=0;endFill=0;startArrow=classic;startFill=1;" edge="1" parent="1" source="HB4ECaWNP2ytKDMWqO4i-5" target="HB4ECaWNP2ytKDMWqO4i-1">
          <mxGeometry width="50" height="50" relative="1" as="geometry">
            <mxPoint x="190" y="190" as="sourcePoint" />
            <mxPoint x="240" y="140" as="targetPoint" />
          </mxGeometry>
        </mxCell>
        <mxCell id="HB4ECaWNP2ytKDMWqO4i-40" value="" style="curved=1;endArrow=none;html=1;rounded=0;entryX=0;entryY=0.5;entryDx=0;entryDy=0;exitX=1;exitY=0.5;exitDx=0;exitDy=0;endFill=0;startArrow=classic;startFill=1;" edge="1" parent="1" source="HB4ECaWNP2ytKDMWqO4i-5" target="HB4ECaWNP2ytKDMWqO4i-21">
          <mxGeometry width="50" height="50" relative="1" as="geometry">
            <mxPoint x="290" y="170" as="sourcePoint" />
            <mxPoint x="340" y="120" as="targetPoint" />
            <Array as="points">
              <mxPoint x="340" y="170" />
              <mxPoint x="290" y="120" />
            </Array>
          </mxGeometry>
        </mxCell>
        <mxCell id="HB4ECaWNP2ytKDMWqO4i-41" value="API调用" style="edgeLabel;html=1;align=center;verticalAlign=middle;resizable=0;points=[];" vertex="1" connectable="0" parent="HB4ECaWNP2ytKDMWqO4i-40">
          <mxGeometry x="-0.0734" y="8" relative="1" as="geometry">
            <mxPoint as="offset" />
          </mxGeometry>
        </mxCell>
        <mxCell id="HB4ECaWNP2ytKDMWqO4i-45" value="" style="curved=1;endArrow=classic;html=1;rounded=0;entryX=0.16;entryY=0.55;entryDx=0;entryDy=0;entryPerimeter=0;endFill=1;" edge="1" parent="1" source="HB4ECaWNP2ytKDMWqO4i-5" target="HB4ECaWNP2ytKDMWqO4i-9">
          <mxGeometry x="1" y="110" width="50" height="50" relative="1" as="geometry">
            <mxPoint x="380" y="250" as="sourcePoint" />
            <mxPoint x="430" y="200" as="targetPoint" />
            <Array as="points">
              <mxPoint x="430" y="250" />
              <mxPoint x="380" y="200" />
            </Array>
            <mxPoint x="110" y="110" as="offset" />
          </mxGeometry>
        </mxCell>
        <mxCell id="HB4ECaWNP2ytKDMWqO4i-46" value="阿里云 API调用" style="edgeLabel;html=1;align=center;verticalAlign=middle;resizable=0;points=[];" vertex="1" connectable="0" parent="HB4ECaWNP2ytKDMWqO4i-45">
          <mxGeometry x="0.1477" y="-5" relative="1" as="geometry">
            <mxPoint x="1" as="offset" />
          </mxGeometry>
        </mxCell>
        <mxCell id="HB4ECaWNP2ytKDMWqO4i-50" value="......" style="text;html=1;strokeColor=none;fillColor=none;align=center;verticalAlign=middle;whiteSpace=wrap;rounded=0;" vertex="1" parent="1">
          <mxGeometry x="430" y="375" width="60" height="30" as="geometry" />
        </mxCell>
        <mxCell id="HB4ECaWNP2ytKDMWqO4i-51" value="多集群" style="rounded=1;whiteSpace=wrap;html=1;fillColor=#d5e8d4;strokeColor=#82b366;" vertex="1" parent="1">
          <mxGeometry x="480" y="350" width="105" height="80" as="geometry" />
        </mxCell>
        <mxCell id="HB4ECaWNP2ytKDMWqO4i-52" value="Harbor镜像仓库" style="shape=cylinder3;whiteSpace=wrap;html=1;boundedLbl=1;backgroundOutline=1;size=15;fillColor=#fff2cc;strokeColor=#d6b656;" vertex="1" parent="1">
          <mxGeometry x="140" y="530" width="60" height="80" as="geometry" />
        </mxCell>
        <mxCell id="HB4ECaWNP2ytKDMWqO4i-54" value="" style="curved=1;endArrow=none;html=1;rounded=0;entryX=0.5;entryY=1;entryDx=0;entryDy=0;exitX=0.5;exitY=0;exitDx=0;exitDy=0;exitPerimeter=0;endFill=0;startArrow=classic;startFill=1;" edge="1" parent="1" source="HB4ECaWNP2ytKDMWqO4i-52" target="HB4ECaWNP2ytKDMWqO4i-20">
          <mxGeometry width="50" height="50" relative="1" as="geometry">
            <mxPoint x="140" y="510" as="sourcePoint" />
            <mxPoint x="190" y="460" as="targetPoint" />
            <Array as="points">
              <mxPoint x="190" y="510" />
              <mxPoint x="140" y="460" />
            </Array>
          </mxGeometry>
        </mxCell>
        <mxCell id="HB4ECaWNP2ytKDMWqO4i-55" value="Push镜像" style="edgeLabel;html=1;align=center;verticalAlign=middle;resizable=0;points=[];" vertex="1" connectable="0" parent="HB4ECaWNP2ytKDMWqO4i-54">
          <mxGeometry x="0.1112" y="-5" relative="1" as="geometry">
            <mxPoint as="offset" />
          </mxGeometry>
        </mxCell>
        <mxCell id="HB4ECaWNP2ytKDMWqO4i-56" value="" style="curved=1;endArrow=none;html=1;rounded=0;entryX=0.5;entryY=1;entryDx=0;entryDy=0;exitX=1;exitY=0.5;exitDx=0;exitDy=0;exitPerimeter=0;endFill=0;startArrow=classic;startFill=1;" edge="1" parent="1" source="HB4ECaWNP2ytKDMWqO4i-52" target="HB4ECaWNP2ytKDMWqO4i-17">
          <mxGeometry x="0.4142" y="57" width="50" height="50" relative="1" as="geometry">
            <mxPoint x="280" y="540" as="sourcePoint" />
            <mxPoint x="330" y="490" as="targetPoint" />
            <Array as="points">
              <mxPoint x="330" y="540" />
              <mxPoint x="280" y="490" />
            </Array>
            <mxPoint x="-40" y="17" as="offset" />
          </mxGeometry>
        </mxCell>
        <mxCell id="HB4ECaWNP2ytKDMWqO4i-57" value="Pull镜像" style="text;html=1;align=center;verticalAlign=middle;resizable=0;points=[];autosize=1;strokeColor=none;fillColor=none;" vertex="1" parent="1">
          <mxGeometry x="275" y="495" width="70" height="30" as="geometry" />
        </mxCell>
      </root>
    </mxGraphModel>
  </diagram>
</mxfile>
